HIERARCHY
ROOT HipCenter
{
    OFFSET 0.0 0.0 -0.0
    CHANNELS 6 Xposition Yposition Zposition Zrotation Xrotation Yrotation
    JOINT Spine
    {
        OFFSET 0.0 11.537464141845703 0.0
        CHANNELS 3 Zrotation Xrotation Yrotation
        JOINT ShoulderCenter
        {
            OFFSET 0.0 33.01592254638672 0.0
            CHANNELS 3 Zrotation Xrotation Yrotation
            JOINT LeftShoulder
            {
                OFFSET 18.589237213134766 0.0 0.0
                CHANNELS 3 Zrotation Xrotation Yrotation
                JOINT LeftElbow
                {
                    OFFSET 28.857070922851562 0.0 0.0
                    CHANNELS 3 Zrotation Xrotation Yrotation
                    JOINT LeftWrist
                    {
                        OFFSET 29.327783584594727 0.0 0.0
                        CHANNELS 3 Zrotation Xrotation Yrotation
                        JOINT LeftHand
                        {
                            OFFSET 3.7766261100769043 0.0 0.0
                            CHANNELS 3 Zrotation Xrotation Yrotation
                            End Site
                            {
                                OFFSET 1.510650396347046 0.0 0.0
                            }
                        }
                    }
                }
            }
            JOINT RightShoulder
            {
                OFFSET -18.589237213134766 0.0 0.0
                CHANNELS 3 Zrotation Xrotation Yrotation
                JOINT RightElbow
                {
                    OFFSET -28.857070922851562 0.0 0.0
                    CHANNELS 3 Zrotation Xrotation Yrotation
                    JOINT RightWrist
                    {
                        OFFSET -29.327783584594727 0.0 0.0
                        CHANNELS 3 Zrotation Xrotation Yrotation
                        JOINT RightHand
                        {
                            OFFSET -3.7766261100769043 0.0 0.0
                            CHANNELS 3 Zrotation Xrotation Yrotation
                            End Site
                            {
                                OFFSET -1.510650396347046 0.0 0.0
                            }
                        }
                    }
                }
            }
            End Site
            {
                OFFSET 0.0 13.20637035369873 0.0
            }
        }
    }
    JOINT LeftHip
    {
        OFFSET 13.48421573638916 0.0 0.0
        CHANNELS 3 Zrotation Xrotation Yrotation
        JOINT LeftKnee
        {
            OFFSET 0.0 -41.18169403076172 0.0
            CHANNELS 3 Zrotation Xrotation Yrotation
            JOINT LeftAnkle
            {
                OFFSET 0.0 -42.332061767578125 0.0
                CHANNELS 3 Zrotation Xrotation Yrotation
                JOINT LeftFoot
                {
                    OFFSET 0.0 -13.491710662841797 0.0
                    CHANNELS 3 Zrotation Xrotation Yrotation
                    End Site
                    {
                        OFFSET 0.0 0.0 5.396683692932129
                    }
                }
            }
        }
    }
    JOINT RightHip
    {
        OFFSET -13.48421573638916 0.0 0.0
        CHANNELS 3 Zrotation Xrotation Yrotation
        JOINT RightKnee
        {
            OFFSET 0.0 -41.18169403076172 0.0
            CHANNELS 3 Zrotation Xrotation Yrotation
            JOINT RightAnkle
            {
                OFFSET 0.0 -42.332061767578125 0.0
                CHANNELS 3 Zrotation Xrotation Yrotation
                JOINT RightFoot
                {
                    OFFSET 0.0 -13.491710662841797 0.0
                    CHANNELS 3 Zrotation Xrotation Yrotation
                    End Site
                    {
                        OFFSET 0.0 0.0 5.396683692932129
                    }
                }
            }
        }
    }
}
MOTION
Frames: 8
Frame Time: 0.03333333333333333
48.5 -6.700000286102295 48.0 -4.085612950832645 14.001992359426895 -5.216118523207771 4.018088694108982 1.3257342974322162 -0.10261705810350637 -1.9584754144363094e-07 3.068307921811331e-06 2.1141919078992712 112.82109347913169 22.869419017674385 150.84173042589845 -6.442855918923898e-07 -4.712362573272374e-06 35.790553629948406 5.562231545628338e-06 -63.79309559583631 28.97653280409494 3.1805546814635168e-15 7.156248033292912e-15 -3.1805546814635168e-15 -101.5672753612257 26.418619487868558 -154.90495854040577 -2.7129042526682726e-06 3.593272491969365e-06 -29.33544690382647 179.9999974165522 -63.58712915891907 152.8540016518278 0.0 -3.975693351829396e-16 0.0 24.40649327099504 -49.02119328967361 41.216161148086016 31.992335710339088 52.946944673683745 -104.5310382810785 89.23283124528557 -26.824765494591517 147.579377128279 3.531125038440127e-31 6.3611093629270335e-15 -6.3611093629270335e-15 4.844945495743144 -50.571899994864715 -7.042026245640724 -14.815352074992065 55.781924491944636 63.408347715283064 -87.22734452078795 -40.82941024884138 -129.74556240975446 0.0 0.0 1.5902773407317582e-15
48.10000228881836 -10.5 50.099998474121094 -4.594242460273246 13.511818960025376 -5.007653051152984 4.203971329612248 2.7090311594143306 -0.17961493170130807 -2.0200540806800167e-07 2.2783271596376547e-06 2.8107014482737642 110.47491820143432 25.898766072499626 159.99957728215267 -7.258821544924984e-07 -8.435014583427111e-07 32.97355235036365 2.688049269074781e-06 -60.374116555082544 31.01735712781749 0.0 0.0 1.590277340731758e-15 -98.24107621658561 26.000966610889154 -162.8641782135363 -3.693200687215324e-06 -3.349678588696433e-06 -25.484767265471007 -179.99999879586414 -61.66167468695415 148.4409899855869 0.0 -7.951386703658792e-16 0.0 29.676744250883786 -52.55898311165858 56.188823991235836 56.156475165389956 52.48222843063025 -131.3800257452144 93.38874765003446 -26.245194663552006 146.08781852556302 0.0 0.0 1.5902773407317588e-15 6.134032709029474 -55.840269441507 -13.324679530286364 -38.7299240250198 63.73033653082079 90.39593451290348 -92.46322543955576 -37.08048170734126 -132.27858314859753 3.1805546814635168e-15 1.7655625192200634e-31 6.3611093629270335e-15
48.20000076293945 -12.5 52.29999923706055 -4.553756718907196 12.918061387243595 -3.5061861730683295 4.602846523203983 2.50077839572132 -0.20098149976455593 1.9201062616471686e-07 -2.08472699738342e-06 1.666204675543996 105.97392151455274 23.464100401959687 165.99952677665468 5.7053461373170535e-08 8.349906874572161e-07 36.70834762712056 6.482142615988936e-06 -68.80481574221979 30.57872770132507 3.1805546814635176e-15 7.156248033292914e-15 -3.1805546814635176e-15 -96.34654908044175 22.66721604636241 -167.7137257234037 -1.7927719235832914e-07 -8.200204697062283e-06 -28.365543868182993 179.9999972664937 -65.65980295675757 150.51264981181623 5.517382872562698e-33 1.9878466759146977e-16 -3.1805546814635164e-15 30.5071115866005 -52.31579160959442 56.410326685827265 60.909100763055314 55.98942360848042 -136.46482302386946 99.11389960824661 -25.51732316963167 147.4764455108847 1.7655625192200634e-31 -6.3611093629270335e-15 3.1805546814635168e-15 1.352293381335812 -55.593260419004075 -15.455456510811034 -37.62479449052481 69.8497270528274 91.66232509680542 -97.90679675156582 -33.861651639953116 -133.7188676599241 0.0 0.0 -5.5659706925611536e-15
48.29999923706055 -12.700000762939453 54.29999923706055 -4.085613178248189 12.552019085616823 -2.416091357679115 4.255850097012439 1.4906898771010924 -0.12008769494948533 2.7073901062371605e-08 2.3165245165100193e-07 0.7856171180492925 103.41866057739952 16.061396561177013 169.2260749955811 1.713663057206014e-07 4.5328092904643305e-07 45.02036631140136 -1.226032349565221e-05 -68.59134650455238 29.103672693096907 3.1805546814635176e-15 -6.620859447075238e-32 -2.3854160110976384e-15 -95.84557006613878 14.815594735241548 -169.65933303901315 -3.7487733451074205e-06 -2.2171596657326723e-06 -37.053793130369854 -179.9999923710309 -61.17653728901995 152.437851316285 0.0 0.0 3.1805546814635168e-15 28.42612175343318 -50.23644160989696 49.6544252864889 55.50245940547452 61.02314914459025 -130.38000128018763 103.37109482116936 -26.01845719329621 149.10376929920244 0.0 0.0 3.1805546814635176e-15 -2.7413198473298865 -52.578774550304466 -15.600173497674845 -24.369223139937574 71.85993678202558 80.96658106761822 -103.53946156835981 -31.183185852434754 -139.7701057546169 -3.310429723537619e-32 -7.951386703658792e-16 -4.770832022195275e-15
48.400001525878906 -12.100000381469727 55.69999694824219 -4.0856130955651455 12.55201819984652 -2.892760532043933 4.265973055837077 1.189697236383268 -0.10270184012696541 4.632859219695936e-08 -3.9924569288454483e-07 1.5386917093383676 101.95744452010695 10.589884069867974 170.95665640380844 -1.5328247598716878e-06 2.1034926882201727e-06 55.73661487789199 -8.804117916497778e-06 -53.74486208888758 30.47288010428434 -1.5902773407317584e-15 -6.3611093629270335e-15 -7.951386703658792e-16 -96.12478933570026 10.666263943537595 -171.7425329897363 -3.8084731096790322e-06 1.001126533714036e-06 -47.45170831196145 179.99999956571543 -63.73247706182866 155.29039355013018 -4.4139062980501586e-32 1.5902773407317584e-15 3.1805546814635168e-15 28.748938665862568 -48.844771379104486 49.95647001228394 54.10015191385191 60.999599053006946 -129.85516897488313 102.83160297008165 -25.722262924115626 149.03889178129958 -3.1805546814635168e-15 2.2069531490250793e-31 -7.951386703658792e-15 -1.9944081213559917 -50.95777516840634 -13.406974041969265 -19.201886582918537 71.17416796335968 75.35574013754548 -103.71854506858283 -30.67452882715602 -140.74246694551627 2.979386751183857e-31 7.156248033292914e-15 -4.770832022195277e-15
48.5 -10.59999942779541 56.69999694824219 -4.08561272832202 13.037252054929462 -2.788978666313045 4.2800048126334875 0.8669538996537177 -0.0685945079151097 -2.531881186460595e-08 7.104995611547748e-07 0.9490856426260955 100.64011020394956 7.879390522071623 172.6867414701969 -9.922386472992823e-07 -3.52347100032862e-06 65.48377450102232 1.5797865688252135e-06 -51.23100698577905 32.92033801767982 0.0 0.0 0.0 -96.39959342976988 8.347312592517577 -174.90825135912803 -4.094526665281974e-06 -8.249369053869052e-07 -55.88294552426885 179.99998630089715 -63.08656151318264 154.15215968381153 0.0 0.0 3.1805546814635176e-15 26.965517642412962 -48.01266426212579 42.99429548377798 44.17541060465069 63.494929689166256 -118.87194688819099 100.31176484102915 -25.72049169253911 147.14718977724334 -3.531125038440127e-31 -6.3611093629270335e-15 -6.3611093629270335e-15 -1.165925268550811 -49.71051239344605 -10.441814453453606 -13.083156839780123 69.6478668374588 68.37415544416967 -101.61086090722392 -31.35716844996148 -138.69716048996978 0.0 6.361109362927035e-15 0.0
48.599998474121094 -8.800000190734863 57.70000076293945 -3.576338226408611 13.0447297102894 -2.6186736214915753 3.788915116159981 0.8160933940543126 -0.0711563872354454 4.129163846473439e-08 -7.636723233351751e-07 0.7137546845196022 100.1409383628461 4.409052749056488 174.03450971673556 1.757753902125085e-06 -2.842140792514301e-07 73.39522937114634 3.360884332437493e-06 -55.24706218856026 33.11976009417752 -3.1805546814635168e-15 1.5902773407317584e-15 -1.5902773407317584e-15 -96.53295689997425 7.355532103752706 -177.98150210138093 -1.8928690157881026e-06 -4.4076986727531344e-07 -62.38681628460679 179.99998989886333 -63.126514181247785 149.57884375330443 0.0 0.0 -1.5902773407317584e-15 23.37697041646318 -45.9344719955947 33.33815953193731 28.4387680054133 64.23372593926388 -101.33763388625992 99.26547283253979 -25.63587862648081 147.89831641757488 0.0 0.0 3.1805546814635176e-15 -0.46692136534605033 -46.721047456120196 -5.066048328025082 -2.8985905962909877 65.81394654810477 56.45310762046813 -100.01209297347641 -30.998115022387005 -138.87463215016635 -3.1805546814635176e-15 6.361109362927035e-15 -1.5902773407317584e-15
48.69999694824219 -6.700000286102295 58.70000076293945 -3.5763382883386994 12.559216988139374 -2.1561828546045594 4.142321078155048 0.9502383982778645 -0.08433404944926888 -5.523100221702505e-08 -4.0271128199011563e-07 0.5942256649232999 99.75671789334571 1.9192377877572158 175.72221492017596 -4.662624916114192e-07 -4.268830040608479e-06 78.4595055498995 -3.096316888603511e-06 -52.74508413539333 32.40563622367082 -4.4139062980501586e-32 1.5902773407317588e-15 3.1805546814635176e-15 -96.75950897871927 7.557290731432367 178.99924494153223 -3.2232319692282836e-06 2.1050686455202032e-06 -67.01804454835623 -179.99999237575645 -60.9251259634615 148.9572989585757 -2.2069531490250793e-32 -1.5902773407317584e-15 -1.5902773407317584e-15 19.843194231021418 -42.34560956137162 19.70179187875667 5.593200201676035 62.176306535605676 -74.7533173205106 97.74485586259443 -25.954512412251773 147.73342061356746 6.3611093629270335e-15 4.770832022195275e-15 -2.648343778830095e-31 0.04882527176308797 -42.36717937522525 0.314199306679223 5.335000568858944 60.15553904855808 46.56464505288927 -98.43983161880972 -30.696907689988638 -139.71255404260617 -1.5902773407317582e-15 6.3611093629270335e-15 -3.1805546814635168e-15
